<?xml version="1.0" standalone="no"?>
<!DOCTYPE svg PUBLIC "-//W3C//DTD SVG 20010904//EN"
 "http://www.w3.org/TR/2001/REC-SVG-20010904/DTD/svg10.dtd">
<svg version="1.0" xmlns="http://www.w3.org/2000/svg"
 width="157.000000pt" height="160.000000pt" viewBox="0 0 157.000000 160.000000"
 preserveAspectRatio="xMidYMid meet">

<g transform="translate(0.000000,160.000000) scale(0.100000,-0.100000)"
fill="#000000" stroke="none">
<path d="M651 1428 c-44 -90 -107 -224 -140 -298 -32 -74 -94 -211 -136 -305
-43 -93 -108 -237 -145 -320 -37 -82 -80 -177 -95 -210 -16 -33 -52 -113 -81
-177 l-52 -118 724 0 c795 0 754 -3 808 60 37 45 36 102 -3 141 -59 59 -151
24 -151 -56 0 -39 22 -46 29 -9 4 26 31 54 51 54 25 0 40 -21 40 -55 -1 -77
-38 -85 -417 -85 l-303 0 0 110 0 110 250 0 250 0 0 130 c0 106 -3 130 -14
130 -8 0 -18 -14 -22 -32 -9 -45 -45 -90 -94 -117 l-40 -22 0 270 0 271 -60 0
-60 0 0 -295 0 -295 -105 0 -105 0 0 620 0 620 85 0 c78 0 85 2 85 20 0 19 -7
20 -109 20 l-110 0 -80 -162z m-1 -733 l0 -645 -290 0 c-160 0 -290 2 -290 5
0 3 22 54 49 113 27 59 104 229 171 377 67 149 147 324 177 390 105 228 150
330 162 368 7 20 14 37 17 37 2 0 4 -290 4 -645z"/>
</g>
</svg>
